<svg xmlns="http://www.w3.org/2000/svg" width="500" height="99"><path stroke="null" d="M115.104 94.312v-67.85c0-2.85.544-3.388 3.392-3.388h6.796c2.853 0 3.392.406 3.808 2.306l1.084 7.194c.407 2.85.814 2.982 2.31.406 3.529-5.426 8.966-9.77 15.074-10.993 2.854-.27 3.392.269 3.392 3.119v15.88c0 2.85-.544 3.389-3.392 3.389h-11.413c-2.853 0-3.392.538-3.392 3.388v46.544c0 2.85-.54 3.388-3.392 3.388h-10.864c-2.853 0-3.392-.538-3.392-3.388l-.01.01v-.005zm42.445 0v-67.85c0-2.85.538-3.388 3.392-3.388h6.794c2.853 0 3.392.406 3.81 2.306l1.083 7.194c.407 2.85.814 2.982 2.31.406 3.529-5.426 8.965-9.77 15.079-10.993 2.853-.27 3.392.269 3.392 3.119v15.88c0 2.85-.54 3.389-3.392 3.389h-11.413c-2.854 0-3.392.538-3.392 3.388v46.544c0 2.85-.54 3.388-3.393 3.388h-10.863c-2.854 0-3.392-.538-3.392-3.388l-.01.01-.005-.005zm42.359-79.107V3.668c0-2.85.539-3.389 3.392-3.389h11.55c2.854 0 3.392.539 3.392 3.389v11.537c0 2.85-.543 3.388-3.392 3.388H203.3c-2.853 0-3.392-.538-3.392-3.388zm.407 79.107v-67.85c0-2.85.539-3.388 3.392-3.388h10.864c2.853 0 3.392.538 3.392 3.388v67.85c0 2.849-.54 3.388-3.392 3.388h-10.864c-2.853 0-3.392-.54-3.392-3.389zm24.45-31.888c0-26.056 9.373-40.712 26.222-40.712 15.62 0 24.316 10.851 24.316 35.693v3.256c0 2.85-.544 3.389-3.392 3.389h-28.126c-2.04 0-2.445.406-2.445 2.306.538 11.537 4.485 17.775 11.005 17.775 3.942 0 6.795-3.658 7.472-9.5.268-2.85.814-3.388 3.661-3.388h8.967c2.853 0 3.392.539 3.255 3.388-1.083 15.332-9.104 24.426-23.09 24.426-17.791 0-27.846-13.158-27.846-36.638l-.01.01.01-.005zm19.427-11.537h11.144c2.853 0 3.392-.538 3.255-3.388-.677-7.87-3.662-12.213-8.148-12.213s-8.01 4.613-8.565 13.295c-.132 1.9.27 2.306 2.31 2.306h.004zm39.03 43.425v-67.85c0-2.85.544-3.388 3.391-3.388h6.795c2.853 0 3.392.406 3.81 2.306l1.082 7.194c.408 2.85.815 2.982 2.31.406 3.53-5.426 8.966-9.77 15.074-10.993 2.854-.27 3.393.269 3.393 3.119v15.88c0 2.85-.544 3.389-3.393 3.389h-11.413c-2.853 0-3.392.538-3.392 3.388v46.544c0 2.85-.544 3.388-3.392 3.388h-10.863c-2.854 0-3.393-.538-3.393-3.388l-.01.01v-.005zm39.154-31.888c0-26.056 9.374-40.712 26.224-40.712 15.618 0 24.316 10.851 24.316 35.693v3.256c0 2.85-.54 3.389-3.392 3.389h-28.126c-2.04 0-2.447.406-2.447 2.306.545 11.537 4.487 17.775 11.007 17.775 3.941 0 6.794-3.658 7.47-9.5.27-2.85.814-3.388 3.663-3.388h8.966c2.854 0 3.392.539 3.255 3.388-1.083 15.332-9.104 24.426-23.09 24.426-17.796 0-27.846-13.158-27.846-36.638l-.01.01.01-.005zm19.428-11.537h11.144c2.854 0 3.392-.538 3.255-3.388-.676-7.87-3.662-12.213-8.147-12.213-4.486 0-8.01 4.613-8.56 13.295-.137 1.9.27 2.306 2.308 2.306zm36.718 45.055V81.154c0-1.362.269-1.63 1.769-1.63h14.266c1.363 0 1.633.268 1.633 1.63v14.788c0 1.493-.27 1.767-1.633 1.767H380.29c-1.495 0-1.77-.268-1.77-1.767zm87.662-20.498V38.268c0-1.361-.27-1.63-1.633-1.63h-4.217c-2.852 0-3.392-.539-3.392-3.389v-6.787c0-2.85.54-3.388 3.392-3.388h5.57c1.353 0 1.77-.27 2.04-1.631l3.391-11.4c.816-2.712 1.495-3.251 4.349-3.251h4.755c2.853 0 3.391.538 3.391 3.388v11.131c0 1.494.27 1.768 1.774 1.768h11.005c2.853 0 3.391.538 3.391 3.388v6.788c0 2.85-.538 3.388-3.391 3.388h-11.005c-1.505 0-1.774.269-1.774 1.63v38c0 4.887 2.58 6.243 5.972 6.243 1.769 0 3.528-.137 5.703-.406 2.854-.407 3.391 0 3.391 2.85v8.138c0 2.85-.537 3.526-3.26 4.344-3.122.812-5.16 1.082-8.009 1.082-10.188 0-21.469-4.888-21.469-23.064l.015-.01.01-.006zM37.344 62.243c-.766-1.523-.766-2.2 0-3.722l15.662-32.47c1.23-2.434.958-2.977-1.91-2.977H38.34c-2.863 0-3.683.538-4.912 3.114L19.266 56.492c-.423.891-.573 1.325-1.033 1.325-.325 0-.438-.548-.438-1.62V3.387C17.795.538 17.242 0 14.368 0H3.427C.542 0 0 .539 0 3.388v90.914c0 2.85.553 3.389 3.427 3.389h10.951c2.88 0 3.427-.544 3.427-3.39V64.574c0-1.072.113-1.62.438-1.62.46 0 .61.433 1.033 1.324l14.163 30.305c1.23 2.57 2.049 3.114 4.912 3.114h12.755c2.863 0 3.135-.539 1.91-2.977L37.344 62.243zm19.16 20.125c0-10.312 7.201-17.232 20.654-23.206l9.51-4.206c2.58-1.082 3.123-1.9 3.123-4.75V46.27c0-6.244-2.447-9.769-6.927-9.769-4.756 0-7.334 3.525-7.334 9.769v2.586c0 1.768-.27 2.037-2.04 2.037H61.265c-1.77 0-2.04-.27-2.04-2.037v-2.586c0-15.743 8.418-24.562 23.64-24.562 15.222 0 24.585 8.824 24.585 24.562v48.038c0 2.85-.544 3.388-3.392 3.388H97.95c-2.31 0-2.986-.37-3.387-2.676l-.137-.712c-.408-2.307-.947-2.444-2.716-1.083-5.295 3.805-10.325 5.832-15.9 5.832-11.687 0-19.29-6.918-19.29-16.692l-.01.01-.006-.006zm30.154 1.493c2.579-1.082 3.123-1.9 3.123-4.75v-8.823c0-2.85-.54-3.12-3.123-2.038l-4.348 2.038c-4.893 2.174-8.149 4.75-8.149 8.687 0 2.443 1.364 5.831 6.796 5.831 2.04 0 3.809-.406 5.701-.945zm315.256-1.493c0-10.312 7.202-17.232 20.655-23.206l9.51-4.206c2.579-1.082 3.123-1.9 3.123-4.75V46.27c0-6.244-2.446-9.769-6.927-9.769-4.756 0-7.334 3.525-7.334 9.769v2.586c0 1.768-.27 2.037-2.04 2.037h-12.226c-1.77 0-2.04-.27-2.04-2.037v-2.586c0-15.743 8.418-24.562 23.64-24.562 15.222 0 24.585 8.824 24.585 24.562v48.038c0 2.85-.544 3.388-3.392 3.388h-6.108c-2.31 0-2.986-.37-3.387-2.676l-.138-.712c-.407-2.307-.946-2.444-2.715-1.083-5.295 3.805-10.325 5.832-15.9 5.832-11.687 0-19.29-6.918-19.29-16.692l-.01.01-.006-.006zm30.155 1.493c2.579-1.082 3.123-1.9 3.123-4.75v-8.823c0-2.85-.54-3.12-3.123-2.038l-4.348 2.038c-4.893 2.174-8.148 4.75-8.148 8.687 0 2.443 1.362 5.831 6.795 5.831 2.04 0 3.809-.406 5.7-.945z"/></svg>