<svg fill="currentColor" xmlns="http://www.w3.org/2000/svg" viewBox="0 0 526 93">
    <path fill="#8bc72a" class="k-c-logo__dot" d="M430.03 69.13c-6.32 0-11.43 5.12-11.43 11.44 0 6.32 5.11 11.44 11.43 11.44 6.33 0 11.44-5.12 11.44-11.44s-5.12-11.44-11.44-11.44z"/>
    <path fill="#484848" d="M520.46 83.46c-1.48.17-2.86.24-4.16.24-3.59 0-6.08-.78-7.46-2.32-1.39-1.63-2.08-4.41-2.08-8.32V38.28h16.77v-7.22h-16.77v-17.5l-7.96 5.01v55.7c0 1.22.04 2.25.13 3.07.08.82.16 1.46.24 1.96.08.49.2 1.02.37 1.59.89 3.1 2.65 5.5 5.26 7.22 2.7 1.63 6.08 2.45 10.16 2.45 3.34 0 6.69-.41 10.04-1.22v-6.86c-1.48.41-2.98.74-4.54.98zM471.02 29.6c-6.61 0-13.1 1.72-19.46 5.14v7.83a36.38 36.38 0 0 1 8.93-4.4c3.26-1.06 6.53-1.59 9.79-1.59 2.78 0 5.22.5 7.34 1.47 2.12.89 3.6 2.17 4.41 3.8.41.9.69 1.96.86 3.18.24 1.15.37 2.87.37 5.14v2.82c-2.93 0-5.55.08-7.83.24-2.21.08-4.41.29-6.61.61-6.94.98-12.36 3.26-16.28 6.86-3.93 3.59-5.87 8.07-5.87 13.47 0 11.34 8.6 17 25.83 17 5.31 0 11.53-.69 18.72-2.08V47.72c0-6.52-1.8-11.22-5.39-14.07-3.34-2.7-8.28-4.05-14.81-4.05zm12.24 53.73c-1.55.41-3.3.7-5.26.86-1.88.17-3.76.24-5.64.24-6.28 0-10.81-.81-13.58-2.44-2.7-1.63-4.04-4.36-4.04-8.2 0-5.15 2.24-8.85 6.73-11.14 4.57-2.28 11.84-3.43 21.79-3.43v24.11zM167.46 30.7c-.98-.17-1.8-.28-2.45-.36-.65-.09-1.3-.13-1.96-.13-9.46 0-15.42 4.73-17.87 14.2V31.07h-19.82V89.7h20.69V64.98c0-5.31 1.1-9.34 3.3-12.12 2.29-2.77 5.56-4.16 9.79-4.16 2.93 0 5.71.65 8.33 1.95l-.01-19.95zM212.74 30.22c-9.46 0-15.42 4.73-17.87 14.2V31.07h-19.82V89.7h20.69V64.98c0-5.31 1.1-9.34 3.3-12.12 2.28-2.77 5.55-4.16 9.79-4.16 2.93 0 5.71.65 8.33 1.95V30.7c-.98-.17-1.8-.28-2.45-.36-.65-.08-1.31-.12-1.97-.12zM114.05 39.89c-3.75-6.7-11.17-10.03-22.27-10.03-4.41 0-8.9.49-13.47 1.47-4.57.89-8.65 2.17-12.24 3.79V48.7c3.6-1.55 7.18-2.69 10.78-3.43 3.67-.82 7.22-1.22 10.65-1.22 3.43 0 5.87.5 7.35 1.47 1.55.98 2.32 2.57 2.32 4.77v1.84h-2.69c-4.98 0-9.46.52-13.46 1.59-3.99.97-7.42 2.41-10.28 4.29-2.86 1.8-5.05 4.03-6.61 6.73-1.55 2.61-2.32 5.5-2.32 8.69 0 6.04 2.36 10.48 7.1 13.34 4.81 2.78 11.43 4.16 19.83 4.16 5.22 0 10.2-.24 14.94-.74 4.73-.41 9.06-1.06 12.97-1.95V55.31c0-4.08-.2-7.22-.61-9.42-.36-2.29-1.01-4.29-1.99-6zM89.21 78.13c-5.53 0-8.71-3.6-8.71-7.05 0-4.22 4.01-8.53 14.11-8.53h2.57l.01 14.94c-2.8.5-5.14.64-7.98.64zM21.69 63.02L37.48 89.7h24.97L51.67 75.27c-1.95-2.69-3.51-4.78-4.64-6.25-1.15-1.54-2.12-2.81-2.93-3.79a25.53 25.53 0 0 0-2.45-2.58c-.73-.82-1.75-1.79-3.06-2.93 1.07-.82 1.96-1.59 2.69-2.32.82-.82 1.68-1.81 2.58-2.94.9-1.15 1.92-2.53 3.06-4.17 1.22-1.71 2.69-3.92 4.41-6.61l8.2-12.6H35.64L21.69 57.02V3.28H1V89.7h20.69V63.02zM224.74 89.7h20.68V31.06h-20.68zM235.02 23.86c6.32 0 11.44-5.12 11.44-11.44S241.35 1 235.02 1c-6.32 0-11.44 5.12-11.44 11.43.01 6.31 5.13 11.43 11.44 11.43zM354.89 30.22c-9.46 0-15.42 4.73-17.87 14.2V31.07h-19.83V89.7h20.69V64.98c0-5.31 1.1-9.34 3.3-12.12 2.28-2.77 5.55-4.16 9.79-4.16 2.93 0 5.71.65 8.33 1.95V30.7c-.98-.17-1.8-.28-2.45-.36-.65-.08-1.31-.12-1.96-.12zM419.7 61.67c.17-1.22.24-2.81.24-4.77 0-4-.69-7.63-2.08-10.89-1.3-3.34-3.18-6.19-5.63-8.57-2.37-2.45-5.27-4.32-8.7-5.63-3.34-1.3-7.05-1.95-11.15-1.95-4.16 0-8.04.73-11.63 2.2-3.51 1.48-6.52 3.55-9.06 6.25-2.53 2.61-4.53 5.75-6 9.43-1.39 3.6-2.08 7.55-2.08 11.87 0 4.9.98 9.51 2.93 13.83 1.96 4.25 4.69 7.79 8.2 10.66 3.1 2.44 6.45 4.21 10.03 5.26 3.67 1.06 8.12 1.58 13.34 1.58 5.65 0 11.22-.72 16.73-2.15a17.22 17.22 0 0 1-2.08-8.21c0-1.95.33-3.85.93-5.6a55.1 55.1 0 0 1-12.41 1.4c-4.9 0-8.76-.82-11.62-2.45-2.78-1.71-4.37-4.12-4.78-7.22h33.66c.62-2.14.99-3.81 1.16-5.04zm-17.81-5.4h-17.63c-.26-5.18 2.17-12.21 8.69-12.21 9.86 0 9.18 10.05 8.94 12.21zM301.83 37.44c-2.37-2.45-5.27-4.32-8.7-5.63-3.34-1.3-7.05-1.96-11.15-1.96-4.16 0-8.04.74-11.63 2.21-3.51 1.47-6.52 3.56-9.06 6.25-2.54 2.61-4.53 5.75-6 9.43-1.39 3.6-2.08 7.55-2.08 11.87 0 4.9.98 9.5 2.93 13.83 1.96 4.25 4.69 7.79 8.2 10.65 3.11 2.45 6.45 4.21 10.04 5.27 3.66 1.06 8.12 1.58 13.34 1.58 6.44 0 12.81-.94 19.09-2.82V74.04c-5.14 1.55-10.45 2.32-15.92 2.32-4.9 0-8.77-.82-11.62-2.45-2.77-1.71-4.37-4.12-4.77-7.23h33.66c.57-2.12.94-3.79 1.11-5.01.17-1.23.24-2.82.24-4.77 0-3.99-.69-7.63-2.08-10.89-1.27-3.35-3.15-6.21-5.6-8.57zm-10.35 18.83h-17.63c-.25-5.19 2.17-12.21 8.7-12.21 9.85.01 9.17 10.05 8.93 12.21z"/>
</svg>